<svg width="40" height="40" fill="none" xmlns="http://www.w3.org/2000/svg"><g filter="url(#filter0_d)"><rect x="4" y="2" width="32" height="32" rx="8" fill="#fff"/><rect x="4.5" y="2.5" width="31" height="31" rx="7.5" stroke="#E5E5E5"/></g><path d="M23.747 23.6a1.635 1.635 0 0 1-1.585 1.2h-9.524c-.898 0-1.638-.714-1.638-1.608l.002-.059c.005-.06.013-.162.026-.292.022-.216.048-.433.08-.638.064-.42.137-.734.25-.971.482-1.006 3.732-2.34 6.042-2.34 1.109 0 2.435.308 3.567.739.94-.47 2.206-.831 3.233-.831 1.732 0 4.14 1.027 4.527 1.866.09.198.146.444.194.772a10.039 10.039 0 0 1 .077.705L29 22.2a1.4 1.4 0 0 1-1.399 1.4h-3.854zm-.889-2.992c.284.212.488.424.584.623.094.198.16.449.217.769h3.72a8.022 8.022 0 0 0-.04-.33 4.233 4.233 0 0 0-.048-.265 2.101 2.101 0 0 0-.146-.102 5.419 5.419 0 0 0-.779-.402c-.73-.311-1.51-.501-2.166-.501-.413 0-.874.075-1.342.208zM24.2 18a2.4 2.4 0 1 1 0-4.8 2.4 2.4 0 0 1 0 4.8zm0-1.6a.8.8 0 1 0 0-1.6.8.8 0 0 0 0 1.6zm-6.8 1.508a2.954 2.954 0 1 1 0-5.908 2.954 2.954 0 0 1 0 5.908zm0-1.6a1.354 1.354 0 1 0 0-2.708 1.354 1.354 0 0 0 0 2.708zm4.608 5.661a2.651 2.651 0 0 0-.3-.21 8.049 8.049 0 0 0-1.14-.566c-1.06-.435-2.196-.7-3.168-.7s-2.108.265-3.169.7c-.441.182-.84.381-1.139.566-.129.08-.232.152-.3.21l-.01.008a4.207 4.207 0 0 0-.093.467 11.11 11.11 0 0 0-.087.748c.005.002.016.008.036.008h9.524c.02 0 .03-.006.036-.008a12.921 12.921 0 0 0-.087-.748 4.207 4.207 0 0 0-.094-.467l-.01-.008z" fill="gray"/><defs><filter id="filter0_d" x="0" y="0" width="40" height="40" filterUnits="userSpaceOnUse" color-interpolation-filters="sRGB"><feFlood flood-opacity="0" result="BackgroundImageFix"/><feColorMatrix in="SourceAlpha" values="0 0 0 0 0 0 0 0 0 0 0 0 0 0 0 0 0 0 127 0"/><feOffset dy="2"/><feGaussianBlur stdDeviation="2"/><feColorMatrix values="0 0 0 0 0 0 0 0 0 0 0 0 0 0 0 0 0 0 0.05 0"/><feBlend in2="BackgroundImageFix" result="effect1_dropShadow"/><feBlend in="SourceGraphic" in2="effect1_dropShadow" result="shape"/></filter></defs></svg>