<svg width="40" height="40" fill="none" xmlns="http://www.w3.org/2000/svg"><g filter="url(#filter0_d)"><rect x="4" y="2" width="32" height="32" rx="8" fill="#fff"/><rect x="4.5" y="2.5" width="31" height="31" rx="7.5" stroke="#E5E5E5"/></g><path d="M11 13.028a2.018 2.018 0 0 1 .6-1.435A2.045 2.045 0 0 1 13.049 11h13.904c1.13 0 2.048.91 2.048 2.028v9.943a2.018 2.018 0 0 1-.6 1.436 2.045 2.045 0 0 1-1.448.593H13.048A2.04 2.04 0 0 1 11 22.971v-9.943zm16.364 3.06l-6.943 4.15a.824.824 0 0 1-.842 0l-6.943-4.15v6.883c0 .22.186.404.412.404h13.904a.411.411 0 0 0 .38-.248.402.402 0 0 0 .032-.155v-6.884zm-.656-1.504c.337-.2.656-.759.656-1.145v-.41a.403.403 0 0 0-.407-.405H13.043a.41.41 0 0 0-.407.405v.41c0 .384.322.946.656 1.145L20 18.594l6.708-4.01z" fill="gray"/><defs><filter id="filter0_d" x="0" y="0" width="40" height="40" filterUnits="userSpaceOnUse" color-interpolation-filters="sRGB"><feFlood flood-opacity="0" result="BackgroundImageFix"/><feColorMatrix in="SourceAlpha" values="0 0 0 0 0 0 0 0 0 0 0 0 0 0 0 0 0 0 127 0"/><feOffset dy="2"/><feGaussianBlur stdDeviation="2"/><feColorMatrix values="0 0 0 0 0 0 0 0 0 0 0 0 0 0 0 0 0 0 0.05 0"/><feBlend in2="BackgroundImageFix" result="effect1_dropShadow"/><feBlend in="SourceGraphic" in2="effect1_dropShadow" result="shape"/></filter></defs></svg>