<svg width="40" height="40" fill="none" xmlns="http://www.w3.org/2000/svg"><g filter="url(#filter0_d)"><rect x="4" y="2" width="32" height="32" rx="8" fill="#fff"/><rect x="4.5" y="2.5" width="31" height="31" rx="7.5" stroke="#E5E5E5"/></g><path d="M20 18a4 4 0 1 1 0-8 4 4 0 0 1 0 8zm0-1.454a2.546 2.546 0 1 0 0-5.092 2.546 2.546 0 0 0 0 5.091zm7.57 5.15c.127.277.216.676.294 1.206.054.372.096.745.126 1.12l.008.108.002.052A1.818 1.818 0 0 1 26.184 26H13.816A1.818 1.818 0 0 1 12 24.182l.002-.052.008-.108c.031-.375.073-.748.126-1.12.078-.53.167-.929.294-1.206.56-1.213 4.674-2.969 7.57-2.969s7.01 1.756 7.57 2.969zm-1.396.554a3.746 3.746 0 0 0-.427-.311c-.403-.26-.935-.537-1.523-.788-1.41-.601-2.921-.97-4.224-.97-1.303 0-2.814.369-4.224.97-.588.251-1.12.528-1.523.788-.18.115-.326.222-.428.311a1.06 1.06 0 0 0-.086.084c-.049.128-.11.414-.164.78a15.655 15.655 0 0 0-.12 1.087.364.364 0 0 0 .361.345h12.368a.364.364 0 0 0 .361-.345 15.978 15.978 0 0 0-.12-1.088c-.053-.365-.115-.65-.164-.78a1.012 1.012 0 0 0-.087-.083z" fill="gray"/><defs><filter id="filter0_d" x="0" y="0" width="40" height="40" filterUnits="userSpaceOnUse" color-interpolation-filters="sRGB"><feFlood flood-opacity="0" result="BackgroundImageFix"/><feColorMatrix in="SourceAlpha" values="0 0 0 0 0 0 0 0 0 0 0 0 0 0 0 0 0 0 127 0"/><feOffset dy="2"/><feGaussianBlur stdDeviation="2"/><feColorMatrix values="0 0 0 0 0 0 0 0 0 0 0 0 0 0 0 0 0 0 0.05 0"/><feBlend in2="BackgroundImageFix" result="effect1_dropShadow"/><feBlend in="SourceGraphic" in2="effect1_dropShadow" result="shape"/></filter></defs></svg>