<svg width="40" height="40" fill="none" xmlns="http://www.w3.org/2000/svg"><g filter="url(#filter0_d)"><rect x="4" y="2" width="32" height="32" rx="8" fill="#fff"/><rect x="4.5" y="2.5" width="31" height="31" rx="7.5" stroke="#E5E5E5"/></g><path d="M13.457 16.818l.855 7.285c.026.233.266.442.514.442h10.348c.246 0 .487-.211.514-.442l.855-7.285c.019-.165-.078-.273-.262-.273H13.719c-.183 0-.281.11-.262.273zm-1.445.17c-.121-1.036.66-1.897 1.707-1.897h12.562c1.047 0 1.829.859 1.707 1.897l-.855 7.285c-.113.968-.98 1.727-1.96 1.727H14.827c-.98 0-1.845-.757-1.959-1.727l-.855-7.285zM14.91 14a.727.727 0 1 1 0-1.454h10.182a.727.727 0 1 1 0 1.454H14.909zm1.818-2.546a.727.727 0 1 1 0-1.454h6.546a.727.727 0 1 1 0 1.454h-6.546z" fill="gray"/><defs><filter id="filter0_d" x="0" y="0" width="40" height="40" filterUnits="userSpaceOnUse" color-interpolation-filters="sRGB"><feFlood flood-opacity="0" result="BackgroundImageFix"/><feColorMatrix in="SourceAlpha" values="0 0 0 0 0 0 0 0 0 0 0 0 0 0 0 0 0 0 127 0"/><feOffset dy="2"/><feGaussianBlur stdDeviation="2"/><feColorMatrix values="0 0 0 0 0 0 0 0 0 0 0 0 0 0 0 0 0 0 0.05 0"/><feBlend in2="BackgroundImageFix" result="effect1_dropShadow"/><feBlend in="SourceGraphic" in2="effect1_dropShadow" result="shape"/></filter></defs></svg>