<svg width="40" height="40" fill="none" xmlns="http://www.w3.org/2000/svg"><g filter="url(#filter0_d)"><rect x="4" y="2" width="32" height="32" rx="8" fill="#fff"/><rect x="4.5" y="2.5" width="31" height="31" rx="7.5" stroke="#E5E5E5"/></g><path fill-rule="evenodd" clip-rule="evenodd" d="M14.912 26A2.91 2.91 0 0 1 12 23.092v-1.09a1.82 1.82 0 0 1 1.817-1.82h2.547V11.82A1.82 1.82 0 0 1 18.18 10h8.003c1.004 0 1.817.815 1.817 1.82v11.271A2.91 2.91 0 0 1 25.088 26H14.912zm11.633-2.909v-11.27a.363.363 0 0 0-.362-.367H18.18a.366.366 0 0 0-.362.366v8.362h4.003c1.002 0 1.815.816 1.815 1.82v1.091a1.455 1.455 0 0 0 2.91-.002zm-4.363.002v-1.092a.364.364 0 0 0-.36-.365h-8.005a.366.366 0 0 0-.363.365v1.09c0 .804.652 1.454 1.457 1.454h7.66a2.89 2.89 0 0 1-.39-1.452zM20 14.727a.727.727 0 1 1 0-1.454h4.364a.727.727 0 1 1 0 1.454H20zm0 2.546a.727.727 0 1 1 0-1.455h2.182a.727.727 0 1 1 0 1.455H20z" fill="gray"/><defs><filter id="filter0_d" x="0" y="0" width="40" height="40" filterUnits="userSpaceOnUse" color-interpolation-filters="sRGB"><feFlood flood-opacity="0" result="BackgroundImageFix"/><feColorMatrix in="SourceAlpha" values="0 0 0 0 0 0 0 0 0 0 0 0 0 0 0 0 0 0 127 0"/><feOffset dy="2"/><feGaussianBlur stdDeviation="2"/><feColorMatrix values="0 0 0 0 0 0 0 0 0 0 0 0 0 0 0 0 0 0 0.05 0"/><feBlend in2="BackgroundImageFix" result="effect1_dropShadow"/><feBlend in="SourceGraphic" in2="effect1_dropShadow" result="shape"/></filter></defs></svg>