<svg width="24" height="28" fill="none" xmlns="http://www.w3.org/2000/svg"><path d="M3.458 8.646h-.06c-.77 0-1.398.63-1.398 1.397v6.086a1.4 1.4 0 0 0 1.398 1.399h.06c.77 0 1.399-.63 1.399-1.4v-6.085a1.404 1.404 0 0 0-1.4-1.397zm2.067 9.832c0 .707.578 1.282 1.285 1.282h1.373v3.287c0 .773.63 1.4 1.397 1.4h.06c.771 0 1.4-.628 1.4-1.4V19.76h1.919v3.287c0 .773.632 1.4 1.4 1.4h.059c.77 0 1.398-.628 1.398-1.4V19.76h1.374c.706 0 1.284-.575 1.284-1.282v-9.61H5.525v9.61zm9.7-15.436l1.09-1.684a.232.232 0 1 0-.389-.252l-1.13 1.741a7.37 7.37 0 0 0-2.795-.542 7.379 7.379 0 0 0-2.797.542l-1.128-1.74a.232.232 0 0 0-.323-.069.232.232 0 0 0-.068.32l1.091 1.684c-1.967.964-3.294 2.781-3.294 4.866 0 .128.008.254.02.38H18.5c.01-.126.018-.252.018-.38 0-2.085-1.328-3.902-3.294-4.866zM8.986 6.055a.625.625 0 1 1 0-1.248.625.625 0 0 1 0 1.249zm6.026 0a.625.625 0 1 1-.002-1.249.625.625 0 0 1 .002 1.25zm5.589 2.591h-.058c-.77 0-1.4.63-1.4 1.397v6.086c0 .77.631 1.399 1.4 1.399h.06c.77 0 1.397-.63 1.397-1.4v-6.085c0-.768-.629-1.397-1.399-1.397z" filter="url(#filter0_d)" fill="#505155"/><defs><filter id="filter0_d" x="0" y="0" width="24" height="27.447" filterUnits="userSpaceOnUse" color-interpolation-filters="sRGB"><feFlood flood-opacity="0" result="BackgroundImageFix"/><feColorMatrix in="SourceAlpha" values="0 0 0 0 0 0 0 0 0 0 0 0 0 0 0 0 0 0 127 0"/><feOffset dy="1"/><feGaussianBlur stdDeviation="1"/><feColorMatrix values="0 0 0 0 0 0 0 0 0 0 0 0 0 0 0 0 0 0 0.1 0"/><feBlend in2="BackgroundImageFix" result="effect1_dropShadow"/><feBlend in="SourceGraphic" in2="effect1_dropShadow" result="shape"/></filter></defs></svg>