<svg width="24" height="28" fill="none" xmlns="http://www.w3.org/2000/svg"><g filter="url(#filter0_d)" fill="#505155"><path d="M19.732 16.635c-.66-.947-.991-2.015-.991-3.202 0-1.081.311-2.072.933-2.972.335-.488.88-1.052 1.637-1.694-.498-.612-.995-1.09-1.493-1.435-.9-.623-1.92-.934-3.059-.934-.679 0-1.507.163-2.483.489-.938.325-1.623.488-2.053.488-.326 0-.986-.143-1.982-.43-1.005-.288-1.852-.431-2.541-.431-1.646 0-3.006.689-4.077 2.067C2.54 9.979 2 11.768 2 13.951c0 2.316.704 4.723 2.11 7.222 1.427 2.479 2.867 3.718 4.322 3.718.488 0 1.12-.162 1.895-.488.776-.315 1.455-.474 2.04-.474.621 0 1.344.154 2.167.46.871.306 1.541.459 2.01.459 1.225 0 2.456-.938 3.69-2.814.804-1.197 1.393-2.393 1.766-3.59-.852-.258-1.608-.861-2.268-1.809z"/><path d="M14.85 5.537c.603-.603 1.048-1.264 1.335-1.981.278-.718.416-1.37.416-1.953 0-.038-.002-.086-.007-.144a2.016 2.016 0 0 1-.007-.143 1.394 1.394 0 0 1-.036-.158A1.339 1.339 0 0 0 16.515 1c-1.684.393-2.88 1.1-3.59 2.125-.717 1.034-1.09 2.264-1.12 3.69.642-.058 1.14-.139 1.494-.244.517-.172 1.034-.517 1.55-1.034z"/></g><defs><filter id="filter0_d" x="0" y="0" width="24" height="27.891" filterUnits="userSpaceOnUse" color-interpolation-filters="sRGB"><feFlood flood-opacity="0" result="BackgroundImageFix"/><feColorMatrix in="SourceAlpha" values="0 0 0 0 0 0 0 0 0 0 0 0 0 0 0 0 0 0 127 0"/><feOffset dy="1"/><feGaussianBlur stdDeviation="1"/><feColorMatrix values="0 0 0 0 0 0 0 0 0 0 0 0 0 0 0 0 0 0 0.1 0"/><feBlend in2="BackgroundImageFix" result="effect1_dropShadow"/><feBlend in="SourceGraphic" in2="effect1_dropShadow" result="shape"/></filter></defs></svg>