<svg width="18" height="18" fill="none" xmlns="http://www.w3.org/2000/svg"><path d="M13.81 11.29a5.752 5.752 0 0 1-2.356 2.068v.593a2.048 2.048 0 0 1 1.637 2.003v1.228a.818.818 0 0 1-.818.818H5.727a.818.818 0 0 1-.818-.818v-1.227c0-.99.7-1.815 1.636-2.005v-.591a5.746 5.746 0 0 1-2.358-2.07A8.993 8.993 0 0 1 0 3.682c0-1.13.916-2.046 2.048-2.046h1.266a2.044 2.044 0 0 1 2-1.636h7.371c.988 0 1.812.704 2.001 1.636h1.266c1.131 0 2.048.916 2.048 2.048a8.99 8.99 0 0 1-4.19 7.606zM3.273 3.273H2.048a.41.41 0 0 0-.412.409 7.33 7.33 0 0 0 1.638 4.63 5.869 5.869 0 0 1-.001-.133V3.273zm11.454 0v4.906l-.001.134a7.328 7.328 0 0 0 1.638-4.629.41.41 0 0 0-.412-.411h-1.225zM8.182 13.85v.876a.818.818 0 0 1-.818.819h-.406a.408.408 0 0 0-.413.409v.409h4.91v-.41a.412.412 0 0 0-.413-.409h-.406a.818.818 0 0 1-.818-.818v-.876a5.779 5.779 0 0 1-1.636 0zM4.909 2.045V8.18a4.092 4.092 0 0 0 8.182 0V2.045a.408.408 0 0 0-.405-.409H5.314a.408.408 0 0 0-.406.41zM9 7.932l-1.198.604c-.266.135-.44.012-.39-.271l.229-1.281-.97-.907c-.215-.202-.147-.399.15-.44l1.34-.187.598-1.165c.133-.259.35-.258.482 0L9.84 5.45l1.34.187c.297.041.363.239.149.44l-.97.907.229 1.28c.05.285-.124.406-.39.272L9 7.932z" fill="#B0B0B0"/></svg>