<svg width="20" height="20" fill="none" xmlns="http://www.w3.org/2000/svg"><path d="M4.545 4.545V2.273A2.274 2.274 0 0 1 6.818 0h10.91A2.274 2.274 0 0 1 20 2.273v10.909a2.274 2.274 0 0 1-2.273 2.272h-2.273v2.273A2.274 2.274 0 0 1 13.182 20H2.272A2.274 2.274 0 0 1 0 17.727V6.818a2.274 2.274 0 0 1 2.273-2.273h2.272zm0 1.819H2.273a.456.456 0 0 0-.455.454v10.91c0 .25.205.454.455.454h10.909c.25 0 .454-.204.454-.455v-2.273H6.818a2.274 2.274 0 0 1-2.273-2.272V6.364zm1.819-4.091v10.909c0 .25.204.454.454.454h10.91c.25 0 .454-.204.454-.454V2.272a.456.456 0 0 0-.455-.454H6.818a.456.456 0 0 0-.454.455z" fill="#B0B0B0"/></svg>