<svg width="16" height="21" fill="none" xmlns="http://www.w3.org/2000/svg"><path d="M2.864 13.598A7.622 7.622 0 0 1 0 7.637a7.637 7.637 0 1 1 12.41 5.961v6.105c0 1.064-1.037 1.628-1.941 1.091l-2.82-1.675c.024.014-2.844 1.675-2.844 1.675-.902.535-1.941-.025-1.941-1.091v-6.105zm1.909 1.12v3.874l1.877-1.115c.578-.343 1.397-.342 1.973 0l1.878 1.115V14.72a7.617 7.617 0 0 1-2.864.555 7.615 7.615 0 0 1-2.864-.555zm2.864-1.354a5.728 5.728 0 1 0 0-11.455 5.728 5.728 0 0 0 0 11.455zm0-2.863a2.864 2.864 0 1 1 0-5.728 2.864 2.864 0 0 1 0 5.728zm0-1.91a.955.955 0 1 0 0-1.909.955.955 0 0 0 0 1.91z" fill="gray"/></svg>