<svg width="20" height="20" fill="none" xmlns="http://www.w3.org/2000/svg"><path d="M15.4 2.237A2.364 2.364 0 0 1 17.763 4.6v2.184l1.545 1.545c.923.923.922 2.42 0 3.342l-1.545 1.545V15.4a2.364 2.364 0 0 1-2.363 2.363h-2.184l-1.545 1.545a2.364 2.364 0 0 1-3.342 0l-1.545-1.545H4.6A2.364 2.364 0 0 1 2.237 15.4v-2.184L.692 11.67a2.364 2.364 0 0 1 0-3.342l1.545-1.545V4.6A2.364 2.364 0 0 1 4.6 2.237h2.184L8.33.692a2.364 2.364 0 0 1 3.342 0l1.545 1.545H15.4zm-3.204 1.552l-1.81-1.811a.546.546 0 0 0-.771 0l-1.811 1.81a.91.91 0 0 1-.643.267H4.6c-.3 0-.545.244-.545.545v2.56a.91.91 0 0 1-.266.644l-1.811 1.81a.546.546 0 0 0 0 .771l1.81 1.811a.91.91 0 0 1 .267.643V15.4c0 .3.244.545.545.545h2.56a.91.91 0 0 1 .644.267l1.81 1.81a.546.546 0 0 0 .771 0l1.811-1.81a.91.91 0 0 1 .643-.267H15.4c.3 0 .545-.244.545-.545v-2.56a.91.91 0 0 1 .267-.644l1.81-1.81a.546.546 0 0 0 0-.771l-1.81-1.811a.909.909 0 0 1-.267-.643V4.6c0-.3-.244-.545-.545-.545h-2.56a.91.91 0 0 1-.644-.266zm.343 2.386a.909.909 0 1 1 1.286 1.286L7.46 13.825a.909.909 0 1 1-1.286-1.286l6.364-6.364zM7.273 8.636a1.364 1.364 0 1 1 0-2.727 1.364 1.364 0 0 1 0 2.727zm5.454 5.455a1.364 1.364 0 1 1 0-2.727 1.364 1.364 0 0 1 0 2.727z" fill="#D12727"/></svg>