<svg width="24" height="23" fill="none" xmlns="http://www.w3.org/2000/svg"><path d="M6.168 20.606l5.327-2.787a1.09 1.09 0 0 1 1.011 0l5.328 2.787a1.7 1.7 0 0 0 .171.078 1.634 1.634 0 0 0-.021-.178l-1.017-5.902a1.09 1.09 0 0 1 .315-.968l4.31-4.18c.047-.046.087-.088.119-.127a1.684 1.684 0 0 0-.176-.035l-5.957-.861a1.09 1.09 0 0 1-.821-.595l-2.664-5.37a1.628 1.628 0 0 0-.092-.164 1.61 1.61 0 0 0-.093.164l-2.664 5.37a1.091 1.091 0 0 1-.821.595l-5.956.861c-.067.01-.125.022-.177.035.033.039.072.082.12.127l4.31 4.18a1.09 1.09 0 0 1 .315.968l-1.017 5.902a1.666 1.666 0 0 0-.022.178c.051-.02.109-.046.172-.078zM12 20.017l-4.822 2.522c-1.98 1.036-3.691-.204-3.312-2.403l.92-5.335L.89 11.022C-.717 9.464-.06 7.454 2.154 7.134l5.39-.779 2.41-4.857c.99-1.999 3.103-1.996 4.094 0l2.41 4.857 5.389.78c2.216.32 2.87 2.33 1.264 3.887l-3.896 3.78.92 5.334c.379 2.201-1.335 3.438-3.312 2.403L12 20.017z" fill="#B0B0B0"/></svg>