<svg width="18" height="18" fill="none" xmlns="http://www.w3.org/2000/svg"><path d="M13.5 1.636h2.452A2.048 2.048 0 0 1 18 3.685v12.267A2.048 2.048 0 0 1 15.952 18H2.048A2.047 2.047 0 0 1 0 15.952V3.685a2.047 2.047 0 0 1 2.048-2.049H4.5V.818a.818.818 0 1 1 1.636 0v.818h5.728V.818a.818.818 0 1 1 1.636 0v.818zm0 1.637v.818a.818.818 0 0 1-1.636 0v-.818H6.136v.818a.818.818 0 0 1-1.636 0v-.818H2.048a.411.411 0 0 0-.412.412v12.267c0 .228.184.412.412.412h13.904a.411.411 0 0 0 .412-.412V3.685a.412.412 0 0 0-.412-.412H13.5zM9 9.818a1.227 1.227 0 1 1 0-2.454 1.227 1.227 0 0 1 0 2.454zm4.5 0a1.227 1.227 0 1 1 0-2.454 1.227 1.227 0 0 1 0 2.454zm-9 4.5a1.227 1.227 0 1 1 0-2.454 1.227 1.227 0 0 1 0 2.454zm4.5 0a1.227 1.227 0 1 1 0-2.454 1.227 1.227 0 0 1 0 2.454z" fill="#B0B0B0"/></svg>