<svg width="18" height="18" fill="none" xmlns="http://www.w3.org/2000/svg"><path d="M9.579 10.396a.817.817 0 0 1-.579.24H6.136a.818.818 0 0 1 0-1.637h2.046V5.726a.818.818 0 0 1 1.636 0v4.091c0 .226-.091.43-.24.579zM1.465 6.622a3.682 3.682 0 1 1 5.443-4.716 8.205 8.205 0 0 1 4.185 0 3.682 3.682 0 1 1 5.442 4.716 8.15 8.15 0 0 1 .648 3.195 8.143 8.143 0 0 1-1.493 4.714l2.072 2.071a.818.818 0 0 1-1.157 1.157l-1.99-1.99A8.156 8.156 0 0 1 9 18a8.156 8.156 0 0 1-5.614-2.23l-1.99 1.99a.818.818 0 0 1-1.157-1.157l2.072-2.071A8.143 8.143 0 0 1 .817 9.817c0-1.134.23-2.214.648-3.195zm.805-1.46a8.22 8.22 0 0 1 3.077-2.668A2.046 2.046 0 1 0 2.27 5.162zm10.383-2.668a8.219 8.219 0 0 1 3.077 2.668 2.045 2.045 0 1 0-3.077-2.668zM9 16.363A6.546 6.546 0 1 0 9 3.272a6.546 6.546 0 1 0 0 13.09z" fill="#B0B0B0"/></svg>