<svg width="18" height="18" fill="none" xmlns="http://www.w3.org/2000/svg"><path d="M6.955 9.832v5.096l4.09 1.169V9.832l-1.484 1.4a.818.818 0 0 1-1.122 0l-1.484-1.4zm6.852-3.847a4.969 4.969 0 0 1-1.125 2.276v7.813l3.682-1.133V5.199l-2.557.787zm-9.681-.42l-2.49.766v9.743l3.682-1.133V8.26a4.979 4.979 0 0 1-1.192-2.695zm.097-1.741A4.966 4.966 0 0 1 7.115.38a4.865 4.865 0 0 1 5.36 1.08 4.973 4.973 0 0 1 1.383 2.797l3.083-.948A.818.818 0 0 1 18 4.09v11.454a.819.819 0 0 1-.578.783l-5.318 1.636a.818.818 0 0 1-.465.004l-5.494-1.57-5.086 1.566A.818.818 0 0 1 0 17.182V5.727a.818.818 0 0 1 .578-.782l3.645-1.121zm7.087-1.215a3.229 3.229 0 0 0-4.62 0C5.406 3.912 5.406 6.03 6.67 7.314L9 9.512l2.32-2.187a3.38 3.38 0 0 0-.01-4.716zM9 6.136a1.227 1.227 0 1 1 0-2.455 1.227 1.227 0 0 1 0 2.455z" fill="#B0B0B0"/></svg>