<svg width="22" height="15" fill="none" xmlns="http://www.w3.org/2000/svg"><path d="M20 9.1V5.9A5.006 5.006 0 0 1 16.1 2H5.9A5.006 5.006 0 0 1 2 5.9v3.2A5.006 5.006 0 0 1 5.9 13h10.2A5.005 5.005 0 0 1 20 9.1zm0 2.07A3.008 3.008 0 0 0 18.17 13h1.326a.503.503 0 0 0 .504-.504v-1.325zm-18 0v1.326c0 .28.225.504.503.504H3.83A3.009 3.009 0 0 0 2 11.17zM18.17 2A3.008 3.008 0 0 0 20 3.83V2.503A.503.503 0 0 0 19.497 2H18.17zM3.83 2H2.503A.503.503 0 0 0 2 2.504v1.325A3.009 3.009 0 0 0 3.83 2zM0 2.504A2.503 2.503 0 0 1 2.503 0h16.994A2.502 2.502 0 0 1 22 2.504v9.992A2.502 2.502 0 0 1 19.497 15H2.503A2.505 2.505 0 0 1 0 12.496V2.504z" fill="gray"/><path d="M7.5 4.833h6.667V3.5H7.5v1.333zm0 .667v1.333h2.667V11.5H11.5V6.833h2.667V5.5H7.5z" fill="gray"/></svg>