<svg width="13" height="20" fill="none" xmlns="http://www.w3.org/2000/svg"><path d="M0 2.276A2.273 2.273 0 0 1 2.269 0h8.19a2.27 2.27 0 0 1 2.268 2.276v15.448A2.273 2.273 0 0 1 10.46 20H2.27A2.272 2.272 0 0 1 0 17.724V2.276zm1.818 0v15.448c0 .255.202.458.45.458h8.191a.455.455 0 0 0 .45-.458V2.276a.454.454 0 0 0-.45-.458h-8.19a.455.455 0 0 0-.45.458zm4.546 14.997a1.363 1.363 0 1 1 0-2.727 1.363 1.363 0 0 1 0 2.727zm-.91-12.728a.91.91 0 1 1 0-1.818h1.819a.91.91 0 1 1 0 1.818H5.455z" fill="#B0B0B0"/></svg>