<svg width="18" height="18" fill="none" xmlns="http://www.w3.org/2000/svg"><path d="M5.697 2.048C5.697.915 6.625 0 7.761 0h1.66c1.138 0 2.064.913 2.064 2.048v.56c.453.192.884.43 1.286.71l.487-.276a2.077 2.077 0 0 1 2.815.745l.83 1.417a2.036 2.036 0 0 1-.76 2.803l-.432.245a6.933 6.933 0 0 1 0 1.496l.432.245a2.036 2.036 0 0 1 .76 2.803l-.83 1.417a2.077 2.077 0 0 1-2.815.746l-.487-.278c-.402.28-.833.52-1.286.712v.559A2.057 2.057 0 0 1 9.421 18h-1.66a2.055 2.055 0 0 1-2.064-2.048v-.662a7.063 7.063 0 0 1-1.158-.682l-.615.35a2.077 2.077 0 0 1-2.814-.745l-.83-1.417a2.036 2.036 0 0 1 .759-2.803l.65-.37a6.941 6.941 0 0 1 0-1.247l-.65-.37a2.036 2.036 0 0 1-.76-2.802l.83-1.417a2.077 2.077 0 0 1 2.815-.745l.615.35c.363-.263.75-.492 1.158-.682v-.662zm1.637 1.206a.818.818 0 0 1-.534.767 5.425 5.425 0 0 0-1.653.974.818.818 0 0 1-.938.091l-1.094-.622a.44.44 0 0 0-.593.15l-.83 1.417a.4.4 0 0 0 .156.553l1.129.642c.3.171.461.513.4.854a5.27 5.27 0 0 0 0 1.84c.061.34-.1.683-.4.854l-1.129.642a.4.4 0 0 0-.157.553l.83 1.417a.44.44 0 0 0 .594.15l1.094-.622a.818.818 0 0 1 .938.09c.487.42 1.047.75 1.653.975a.82.82 0 0 1 .534.767v1.206c0 .226.188.412.427.412h1.66a.421.421 0 0 0 .428-.412v-1.126c0-.354.227-.668.564-.778a5.424 5.424 0 0 0 1.772-.976.818.818 0 0 1 .926-.08l.957.544a.44.44 0 0 0 .593-.15l.83-1.417a.4.4 0 0 0-.157-.553l-.92-.524a.818.818 0 0 1-.398-.87 5.26 5.26 0 0 0 0-2.044.818.818 0 0 1 .398-.87l.92-.524a.4.4 0 0 0 .157-.553l-.83-1.417a.44.44 0 0 0-.593-.15l-.957.544a.818.818 0 0 1-.926-.08 5.424 5.424 0 0 0-1.772-.976.818.818 0 0 1-.564-.778V2.048a.419.419 0 0 0-.428-.412h-1.66a.421.421 0 0 0-.427.412v1.206zm1.257 8.61a2.864 2.864 0 1 1 0-5.728 2.864 2.864 0 0 1 0 5.728zm0-1.637a1.227 1.227 0 1 0 0-2.454 1.227 1.227 0 0 0 0 2.454z" fill="gray"/></svg>