<svg width="16" height="16" fill="none" xmlns="http://www.w3.org/2000/svg"><path d="M11.636 1.455h2.544c.202 0 .366.163.366.366v2.543a.727.727 0 1 0 1.454 0V1.82A1.82 1.82 0 0 0 14.18 0h-2.544a.727.727 0 1 0 0 1.455zm2.91 10.181v2.544a.365.365 0 0 1-.366.366h-2.544a.727.727 0 1 0 0 1.454h2.544A1.82 1.82 0 0 0 16 14.18v-2.544a.727.727 0 1 0-1.454 0zm-10.182 2.91H1.82a.365.365 0 0 1-.366-.366v-2.544a.727.727 0 1 0-1.455 0v2.544A1.82 1.82 0 0 0 1.82 16h2.544a.727.727 0 0 0 0-1.454zM1.454 4.364a.727.727 0 0 1-1.454 0V1.82A1.82 1.82 0 0 1 1.82 0h2.544a.727.727 0 0 1 0 1.455H1.82a.365.365 0 0 0-.366.366v2.543zM.728 8.727a.727.727 0 1 1 0-1.454h14.546a.727.727 0 1 1 0 1.454H.727z" fill="#B0B0B0"/></svg>