<svg width="16" height="16" fill="none" xmlns="http://www.w3.org/2000/svg"><path d="M14.871 8.727a6.912 6.912 0 0 1-6.144 6.144v.402a.727.727 0 1 1-1.454 0v-.402a6.912 6.912 0 0 1-6.144-6.144H.727a.727.727 0 1 1 0-1.454h.402a6.912 6.912 0 0 1 6.144-6.144V.727a.727.727 0 1 1 1.454 0v.402a6.912 6.912 0 0 1 6.144 6.144h.402a.727.727 0 1 1 0 1.454h-.402zm-1.465 0h-1.042a.727.727 0 0 1 0-1.454h1.042a5.458 5.458 0 0 0-4.679-4.68v1.043a.727.727 0 1 1-1.454 0V2.594a5.458 5.458 0 0 0-4.68 4.679h1.043a.727.727 0 1 1 0 1.454H2.594a5.458 5.458 0 0 0 4.679 4.68v-1.043a.727.727 0 0 1 1.454 0v1.042a5.458 5.458 0 0 0 4.68-4.679z" fill="#B0B0B0"/></svg>