<svg width="20" height="20" fill="none" xmlns="http://www.w3.org/2000/svg"><path d="M10 10a5 5 0 1 1 0-10 5 5 0 0 1 0 10zm0-1.818a3.182 3.182 0 1 0 0-6.364 3.182 3.182 0 0 0 0 6.364zm9.462 6.438c.16.346.271.846.369 1.508.067.465.12.931.156 1.399l.01.136.003.064A2.273 2.273 0 0 1 17.73 20H2.27A2.273 2.273 0 0 1 0 17.727l.002-.064.01-.136c.04-.468.092-.934.158-1.399.097-.662.209-1.162.368-1.508.698-1.517 5.842-3.71 9.462-3.71s8.764 2.193 9.462 3.71zm-1.744.693a4.685 4.685 0 0 0-.534-.39 13.277 13.277 0 0 0-1.904-.984c-1.762-.752-3.651-1.212-5.28-1.212-1.629 0-3.518.46-5.28 1.212-.735.314-1.4.66-1.904.984a4.723 4.723 0 0 0-.534.39 1.381 1.381 0 0 0-.108.104c-.061.16-.139.518-.205.975a19.472 19.472 0 0 0-.15 1.36.455.455 0 0 0 .451.43h15.46a.454.454 0 0 0 .451-.43 19.999 19.999 0 0 0-.15-1.36c-.067-.457-.144-.814-.205-.975a1.307 1.307 0 0 0-.108-.104z" fill="#606060"/></svg>